<svg width="942" height="256" viewBox="0 0 942 256" fill="none" xmlns="http://www.w3.org/2000/svg">
<path d="M110.851 128L221.702 192L110.851 256L0 192L110.851 128Z" fill="#2366D1"/>
<path d="M110.851 64L221.702 128L110.851 192L0 128L110.851 64Z" fill="#609DFF"/>
<path d="M110.851 0L221.702 64L110.851 128L0 64L110.851 0Z" fill="#A4C7FF"/>
<path d="M359.3 96.29C356.75 119.75 351.65 138.79 344.17 154.09C336.18 148.82 328.02 143.89 320.2 139.64C323.77 126.38 327.68 111.42 331.42 96.29H359.3ZM364.74 84.05L362.36 84.39H334.31C337.03 72.83 339.75 61.44 341.96 51.24L329.72 49.71C327.68 60.25 324.96 72.15 322.07 84.39H300.99V96.29H319.35C314.08 117.71 308.47 138.62 303.88 153.24L314.76 158.68L316.97 151.03C323.94 155.11 331.25 159.87 338.05 164.63C328.87 178.74 317.31 188.6 303.37 194.72C306.09 197.27 309.32 202.03 311.02 205.09C325.98 197.61 338.39 187.07 348.08 172.11C356.75 178.91 364.06 185.54 369.16 191.32L376.64 180.61C371.37 174.66 363.55 167.86 354.37 161.23C363.72 142.36 369.84 117.71 372.39 85.58L364.74 84.05ZM395.34 176.02V79.97H436.99V176.02H395.34ZM383.44 68.07V200.67H395.34V187.92H436.99V198.12H449.23V68.07H383.44ZM520.63 123.15H532.19V92.21C539.16 97.65 548.34 105.13 552.25 109.04L558.88 98.84C554.8 95.95 537.8 85.24 532.19 82.01V78.27H560.24V67.56H532.19V49.88H520.63V67.56H490.03V78.27H516.72C509.24 90.68 497.68 102.92 486.8 109.21C489.35 111.42 493.09 115.16 494.79 118.05C503.8 111.59 513.32 101.05 520.63 89.49V123.15ZM603.08 141.85C596.11 152.39 586.42 161.23 574.69 168.37C565.17 161.74 550.72 153.92 538.48 148.14C541.54 146.1 544.43 144.06 547.32 141.85H603.08ZM610.73 130.97H560.24C563.3 128.25 566.02 125.36 568.57 122.47L555.82 117.54C543.41 133.18 517.23 149.33 493.43 158.68C496.15 160.89 500.74 164.97 502.95 167.69C511.28 164.12 519.61 159.87 527.94 154.94C539.67 160.72 553.44 168.37 562.79 174.83C542.73 184.52 518.93 190.64 494.11 194.21C496.49 196.93 499.72 202.71 500.91 205.94C552.08 197.44 600.19 178.23 621.78 136.41L613.28 130.46L610.73 130.97ZM640.65 78.27V67.56H605.63V49.88H593.9V67.56H565.51V78.27H590.16C582.34 90.34 570.1 102.41 558.71 108.53C561.26 110.74 565 114.65 567.04 117.54C576.22 111.25 586.25 101.05 593.9 89.83V123.15H605.63V87.79C614.13 100.03 625.52 111.76 635.89 118.56C637.76 115.67 641.5 111.59 644.22 109.38C632.32 103.09 619.06 90.68 610.73 78.27H640.65ZM809.29 132.16H689.44V143.89H734.32V204.92H747.58V143.89H796.71V178.57C796.71 180.61 795.86 181.29 792.97 181.46C790.42 181.46 781.07 181.63 771.04 181.29C772.74 184.69 774.78 189.62 775.46 193.36C788.72 193.36 797.22 193.19 802.49 191.15C807.76 189.11 809.29 185.54 809.29 178.74V132.16ZM716.47 100.2V111.59H787.87V100.2H716.47ZM744.35 49.71C731.09 71.3 702.53 97.48 673.46 113.12C676.35 115.84 679.92 120.26 681.45 123.15C710.01 106.83 737.38 82.52 751.32 62.12C766.96 83.2 796.71 107.68 822.72 122.13C824.93 118.73 827.99 114.31 831.05 111.25C804.7 98.33 774.78 74.19 756.93 49.71H744.35Z" fill="black"/>
</svg>
