<svg width="942" height="256" viewBox="0 0 942 256" fill="none" xmlns="http://www.w3.org/2000/svg">
<path d="M110.851 128L221.702 192L110.851 256L0 192L110.851 128Z" fill="#2366D1"/>
<path d="M110.851 64L221.702 128L110.851 192L0 128L110.851 64Z" fill="#609DFF"/>
<path d="M110.851 0L221.702 64L110.851 128L0 64L110.851 0Z" fill="#A4C7FF"/>
<path d="M359.3 96.29C356.75 119.75 351.65 138.79 344.17 154.09C336.18 148.82 328.02 143.89 320.2 139.64C323.77 126.38 327.68 111.42 331.42 96.29H359.3ZM364.74 84.05L362.36 84.39H334.31C337.03 72.83 339.75 61.44 341.96 51.24L329.72 49.71C327.68 60.25 324.96 72.15 322.07 84.39H300.99V96.29H319.35C314.08 117.71 308.47 138.62 303.88 153.24L314.76 158.68L316.97 151.03C323.94 155.11 331.25 159.87 338.05 164.63C328.87 178.74 317.31 188.6 303.37 194.72C306.09 197.27 309.32 202.03 311.02 205.09C325.98 197.61 338.39 187.07 348.08 172.11C356.75 178.91 364.06 185.54 369.16 191.32L376.64 180.61C371.37 174.66 363.55 167.86 354.37 161.23C363.72 142.36 369.84 117.71 372.39 85.58L364.74 84.05ZM395.34 176.02V79.97H436.99V176.02H395.34ZM383.44 68.07V200.67H395.34V187.92H436.99V198.12H449.23V68.07H383.44ZM503.63 123.15H515.19V92.21C522.16 97.65 531.34 105.13 535.25 109.04L541.88 98.84C537.8 95.95 520.8 85.24 515.19 82.01V78.27H543.24V67.56H515.19V49.88H503.63V67.56H473.03V78.27H499.72C492.24 90.68 480.68 102.92 469.8 109.21C472.35 111.42 476.09 115.16 477.79 118.05C486.8 111.59 496.32 101.05 503.63 89.49V123.15ZM586.08 141.85C579.11 152.39 569.42 161.23 557.69 168.37C548.17 161.74 533.72 153.92 521.48 148.14C524.54 146.1 527.43 144.06 530.32 141.85H586.08ZM593.73 130.97H543.24C546.3 128.25 549.02 125.36 551.57 122.47L538.82 117.54C526.41 133.18 500.23 149.33 476.43 158.68C479.15 160.89 483.74 164.97 485.95 167.69C494.28 164.12 502.61 159.87 510.94 154.94C522.67 160.72 536.44 168.37 545.79 174.83C525.73 184.52 501.93 190.64 477.11 194.21C479.49 196.93 482.72 202.71 483.91 205.94C535.08 197.44 583.19 178.23 604.78 136.41L596.28 130.46L593.73 130.97ZM623.65 78.27V67.56H588.63V49.88H576.9V67.56H548.51V78.27H573.16C565.34 90.34 553.1 102.41 541.71 108.53C544.26 110.74 548 114.65 550.04 117.54C559.22 111.25 569.25 101.05 576.9 89.83V123.15H588.63V87.79C597.13 100.03 608.52 111.76 618.89 118.56C620.76 115.67 624.5 111.59 627.22 109.38C615.32 103.09 602.06 90.68 593.73 78.27H623.65ZM775.29 132.16H655.44V143.89H700.32V204.92H713.58V143.89H762.71V178.57C762.71 180.61 761.86 181.29 758.97 181.46C756.42 181.46 747.07 181.63 737.04 181.29C738.74 184.69 740.78 189.62 741.46 193.36C754.72 193.36 763.22 193.19 768.49 191.15C773.76 189.11 775.29 185.54 775.29 178.74V132.16ZM682.47 100.2V111.59H753.87V100.2H682.47ZM710.35 49.71C697.09 71.3 668.53 97.48 639.46 113.12C642.35 115.84 645.92 120.26 647.45 123.15C676.01 106.83 703.38 82.52 717.32 62.12C732.96 83.2 762.71 107.68 788.72 122.13C790.93 118.73 793.99 114.31 797.05 111.25C770.7 98.33 740.78 74.19 722.93 49.71H710.35Z" fill="black"/>
</svg>
